<?xml version="1.0" encoding="UTF-8" standalone="no"?><svg viewBox="0 0 64 64" xmlns="http://www.w3.org/2000/svg" xmlns:xlink="http://www.w3.org/1999/xlink"><style>:root>svg{display:none}:root>svg:target{display:block}</style><svg viewBox="0 0 22.578 22.578" id="gfdgfre_(1)" xmlns="http://www.w3.org/2000/svg"><g color="#000" font-weight="400" font-family="sans-serif"><path style="line-height:normal;font-variant-ligatures:normal;font-variant-position:normal;font-variant-caps:normal;font-variant-numeric:normal;font-variant-alternates:normal;font-variant-east-asian:normal;font-feature-settings:normal;font-variation-settings:normal;text-indent:0;text-align:start;text-decoration-line:none;text-decoration-style:solid;text-decoration-color:#000;text-transform:none;text-orientation:mixed;white-space:normal;shape-padding:0;shape-margin:0;inline-size:0;isolation:auto;mix-blend-mode:normal;solid-color:#000;solid-opacity:1" d="M10.742 1.612a.36.36 0 00-.362.362v2.163a.36.36 0 00.362.36.36.36 0 00.359-.36V1.974a.36.36 0 00-.36-.362zM16.169 3.089a.36.36 0 00-.325.178l-1.08 1.873a.36.36 0 00.13.492.36.36 0 00.492-.13l1.083-1.873a.36.36 0 00-.133-.492.36.36 0 00-.167-.048zM5.278 3.046a.36.36 0 00-.144.045.36.36 0 00-.133.493l1.083 1.872a.36.36 0 00.492.133.36.36 0 00.13-.492l-1.08-1.873a.36.36 0 00-.348-.178zM1.34 6.997a.36.36 0 00-.321.18.36.36 0 00.13.493l1.873 1.08a.36.36 0 00.492-.13.36.36 0 00-.133-.493l-1.87-1.082a.36.36 0 00-.17-.048zM17.892 5.3a.36.36 0 00-.244.106l-.764.763a.36.36 0 000 .511.36.36 0 00.508 0l.766-.763a.36.36 0 000-.511.36.36 0 00-.266-.107zM13.327 2.68a.36.36 0 00-.324.265l-.28 1.043a.36.36 0 00.256.442.36.36 0 00.442-.256l.279-1.043a.36.36 0 00-.255-.441.36.36 0 00-.118-.011zM8.119 2.68a.36.36 0 00-.093.013.36.36 0 00-.256.439l.28 1.045a.36.36 0 00.441.256.36.36 0 00.256-.442l-.28-1.045a.36.36 0 00-.348-.267zM3.567 5.3a.36.36 0 00-.245.106.36.36 0 000 .51l.767.764a.36.36 0 00.508 0 .36.36 0 000-.51l-.764-.764a.36.36 0 00-.266-.107z" overflow="visible" fill="#ed7425"/><path style="line-height:normal;font-variant-ligatures:normal;font-variant-position:normal;font-variant-caps:normal;font-variant-numeric:normal;font-variant-alternates:normal;font-variant-east-asian:normal;font-feature-settings:normal;font-variation-settings:normal;text-indent:0;text-align:start;text-decoration-line:none;text-decoration-style:solid;text-decoration-color:#000;text-transform:none;text-orientation:mixed;white-space:normal;shape-padding:0;shape-margin:0;inline-size:0;isolation:auto;mix-blend-mode:normal;solid-color:#000;solid-opacity:1" d="M10.728 5.217c-3.366.007-6.1 2.745-6.1 6.073 0 3.329 2.734 6.063 6.1 6.07a6.117 6.117 0 005.193-2.859.36.36 0 00.053-.157l.495-5.052a.36.36 0 00-.021-.165 6.12 6.12 0 00-5.72-3.91z" overflow="visible" fill="#febe40"/><path style="line-height:normal;font-variant-ligatures:normal;font-variant-position:normal;font-variant-caps:normal;font-variant-numeric:normal;font-variant-alternates:normal;font-variant-east-asian:normal;font-feature-settings:normal;font-variation-settings:normal;text-indent:0;text-align:start;text-decoration-line:none;text-decoration-style:solid;text-decoration-color:#000;text-transform:none;text-orientation:mixed;white-space:normal;shape-padding:0;shape-margin:0;inline-size:0;isolation:auto;mix-blend-mode:normal;solid-color:#000;solid-opacity:1" d="M10.742 18.082a.36.36 0 00-.362.361v2.16a.36.36 0 00.362.362.36.36 0 00.359-.361v-2.16a.36.36 0 00-.36-.362zM15.1 16.898a.36.36 0 00-.206.048.36.36 0 00-.13.492l1.08 1.873a.36.36 0 00.492.133.36.36 0 00.133-.492l-1.083-1.873a.36.36 0 00-.287-.181zM6.406 16.94a.36.36 0 00-.322.181L5 18.994a.36.36 0 00.133.492.36.36 0 00.492-.133l1.08-1.873a.36.36 0 00-.13-.492.36.36 0 00-.17-.048zM3.168 13.78a.36.36 0 00-.146.048l-1.873 1.08a.36.36 0 00-.13.492.36.36 0 00.492.133l1.87-1.08a.36.36 0 00.133-.492.36.36 0 00-.346-.181zM17.126 15.794a.36.36 0 00-.242.104.36.36 0 000 .51l.764.764a.36.36 0 00.51 0 .36.36 0 000-.508l-.766-.766a.36.36 0 00-.266-.104zM13.072 18.135a.36.36 0 00-.093.014.36.36 0 00-.255.441l.279 1.043a.36.36 0 00.442.255.36.36 0 00.255-.441l-.28-1.043a.36.36 0 00-.348-.269zM8.377 18.135a.36.36 0 00-.327.266l-.28 1.045a.36.36 0 00.256.442.36.36 0 00.441-.255l.28-1.046a.36.36 0 00-.256-.441.36.36 0 00-.114-.011zM4.33 15.794a.36.36 0 00-.241.104l-.767.766a.36.36 0 000 .508.36.36 0 00.511 0l.764-.764a.36.36 0 000-.51.36.36 0 00-.266-.104z" overflow="visible" fill="#ed7425"/><path style="line-height:normal;font-variant-ligatures:normal;font-variant-position:normal;font-variant-caps:normal;font-variant-numeric:normal;font-variant-alternates:normal;font-variant-east-asian:normal;font-feature-settings:normal;font-variation-settings:normal;text-indent:0;text-align:start;text-decoration-line:none;text-decoration-style:solid;text-decoration-color:#000;text-transform:none;text-orientation:mixed;white-space:normal;shape-padding:0;shape-margin:0;inline-size:0;isolation:auto;mix-blend-mode:normal;solid-color:#000;solid-opacity:1" d="M13.744 7.926a2.77 2.77 0 00-2.758 2.758c0 .089.035.16.044.246-.002.001-.003 0-.005.002-.52.375-.945.98-1.16 1.772a.816.816 0 00-.006.024c-.01.043-.018.086-.023.13-.001.005-.124.763.292 1.53.436.805 1.433 1.419 2.815 1.43-.044-.001.786.02 1.833.021.443-.388.83-.838 1.145-1.338a.36.36 0 00.054-.157l.494-5.052a.36.36 0 00-.021-.165 6.073 6.073 0 00-.601-1.16 4.318 4.318 0 00-.629.452c-.434-.285-.919-.493-1.474-.493z" overflow="visible" fill="#eda824"/><path style="line-height:normal;font-variant-ligatures:normal;font-variant-position:normal;font-variant-caps:normal;font-variant-numeric:normal;font-variant-alternates:normal;font-variant-east-asian:normal;font-feature-settings:normal;font-variation-settings:normal;text-indent:0;text-align:start;text-decoration-line:none;text-decoration-style:solid;text-decoration-color:#000;text-transform:none;text-orientation:mixed;white-space:normal;shape-padding:0;shape-margin:0;inline-size:0;isolation:auto;mix-blend-mode:normal;solid-color:#000;solid-opacity:1" d="M16.93 8.715c-.783 0-1.475.395-1.892.999a1.73 1.73 0 00-1.338-.637c-.95 0-1.73.779-1.73 1.73 0 .214.044.419.117.61-.126.048-.255.109-.382.2-.318.23-.605.614-.759 1.179a.36.36 0 00-.007.046s-.068.456.18.915c.249.458.84.884 1.873.893.01 0 1.176.048 2.645.016 1.458-.031 3.186-.139 4.42-.46.015 0 .539-.032.993-.397.23-.184.442-.468.522-.848.079-.38.03-.836-.179-1.38a.36.36 0 00-.013-.032s-.206-.429-.654-.732a1.69 1.69 0 00-.87-.279c-.204-.01-.428.019-.661.088a2.306 2.306 0 00-2.265-1.911z" overflow="visible" fill="#d0e2ee"/><path style="line-height:normal;font-variant-ligatures:normal;font-variant-position:normal;font-variant-caps:normal;font-variant-numeric:normal;font-variant-alternates:normal;font-variant-east-asian:normal;font-feature-settings:normal;font-variation-settings:normal;text-indent:0;text-align:start;text-decoration-line:none;text-decoration-style:solid;text-decoration-color:#000;text-transform:none;text-orientation:mixed;white-space:normal;shape-padding:0;shape-margin:0;inline-size:0;isolation:auto;mix-blend-mode:normal;solid-color:#000;solid-opacity:1" d="M1.732 10.912a.36.36 0 00-.362.362.36.36 0 00.362.36H2.79a.36.36 0 00.362-.36.36.36 0 00-.362-.362z" overflow="visible" fill="#ed7425"/></g></svg><svg viewBox="0 0 22.578 22.578" id="gfdgfre_(2)" xmlns="http://www.w3.org/2000/svg"><g color="#000" font-weight="400" font-family="sans-serif"><path d="M8.566 2.227a2.549 2.549 0 00-.732 1.79c0 .552.252 1.02.552 1.438-.491.323-.935.738-1.113 1.312a.314.314 0 00.34.404 1.918 1.918 0 01.97.139l.023.007c1.749.587 3.79.533 5.222-.003.004 0 .01-.003.014-.004a1.918 1.918 0 01.962-.14c.223.025.4-.185.336-.4-.167-.577-.613-.99-1.103-1.313.3-.418.554-.887.554-1.44 0-.696-.282-1.33-.735-1.79 0 0-.953-1.244-2.645-1.257C9.52.958 8.566 2.227 8.566 2.227z" style="line-height:normal;font-variant-ligatures:normal;font-variant-position:normal;font-variant-caps:normal;font-variant-numeric:normal;font-variant-alternates:normal;font-variant-east-asian:normal;font-feature-settings:normal;font-variation-settings:normal;text-indent:0;text-align:start;text-decoration-line:none;text-decoration-style:solid;text-decoration-color:#000;text-transform:none;text-orientation:mixed;white-space:normal;shape-padding:0;shape-margin:0;inline-size:0;isolation:auto;mix-blend-mode:normal;solid-color:#000;solid-opacity:1" overflow="visible" fill="#d0e2ed"/><path style="line-height:normal;font-variant-ligatures:normal;font-variant-position:normal;font-variant-caps:normal;font-variant-numeric:normal;font-variant-alternates:normal;font-variant-east-asian:normal;font-feature-settings:normal;font-variation-settings:normal;text-indent:0;text-align:start;text-decoration-line:none;text-decoration-style:solid;text-decoration-color:#000;text-transform:none;text-orientation:mixed;white-space:normal;shape-padding:0;shape-margin:0;inline-size:0;isolation:auto;mix-blend-mode:normal;solid-color:#000;solid-opacity:1" d="M14.129 5.316a2.562 2.562 0 00-.533.158l.011-.005c-1.252.469-3.197.531-4.787.001a2.525 2.525 0 00-.524-.152c.03.045.058.093.09.137-.491.323-.936.738-1.114 1.312a.314.314 0 00.341.404 1.92 1.92 0 01.97.139.314.314 0 00.023.007c1.749.587 3.79.533 5.222-.003a.314.314 0 00.014-.004 1.919 1.919 0 01.962-.14.314.314 0 00.336-.4c-.168-.577-.613-.99-1.104-1.313.033-.045.062-.094.093-.14z" overflow="visible" fill="#aabfd0"/><path d="M8.186 13.877a.314.314 0 00-.232.116l-2.063 2.525-1.619.04a.314.314 0 00-.269.162l-1.741 3.19c-.41.752.152 1.698 1.008 1.698h16.04c.856 0 1.416-.946 1.006-1.698l-1.876-3.439a.314.314 0 00-.28-.164l-9.322.178-.33-2.337a.314.314 0 00-.322-.271z" style="line-height:normal;font-variant-ligatures:normal;font-variant-position:normal;font-variant-caps:normal;font-variant-numeric:normal;font-variant-alternates:normal;font-variant-east-asian:normal;font-feature-settings:normal;font-variation-settings:normal;text-indent:0;text-align:start;text-decoration-line:none;text-decoration-style:solid;text-decoration-color:#000;text-transform:none;text-orientation:mixed;white-space:normal;shape-padding:0;shape-margin:0;inline-size:0;isolation:auto;mix-blend-mode:normal;solid-color:#000;solid-opacity:1" overflow="visible" fill="#99605e"/><path d="M14.59 6.528c-.35 0-.689.073-.994.202l.012-.005c-1.257.47-3.21.533-4.803-.002l.024.007a2.555 2.555 0 00-2.342.186.314.314 0 00-.014.007c-.827.574-1.158 1.311-1.16 2.12a.314.314 0 000 .018c.035.605.356 1.196.784 1.72-.24.267-.475.556-.475.932 0 .394.16.753.422 1.01a.314.314 0 00.146.08c3.377.819 6.737.881 10.05 0a.314.314 0 00.139-.08c.261-.257.424-.616.424-1.01 0-.371-.245-.654-.492-.916.435-.52.763-1.12.798-1.736a.314.314 0 000-.03c-.041-1.161-.6-1.787-1.178-2.12a2.54 2.54 0 00-1.34-.382z" style="line-height:normal;font-variant-ligatures:normal;font-variant-position:normal;font-variant-caps:normal;font-variant-numeric:normal;font-variant-alternates:normal;font-variant-east-asian:normal;font-feature-settings:normal;font-variation-settings:normal;text-indent:0;text-align:start;text-decoration-line:none;text-decoration-style:solid;text-decoration-color:#000;text-transform:none;text-orientation:mixed;white-space:normal;shape-padding:0;shape-margin:0;inline-size:0;isolation:auto;mix-blend-mode:normal;solid-color:#000;solid-opacity:1" overflow="visible" fill="#d0e2ed"/><path style="line-height:normal;font-variant-ligatures:normal;font-variant-position:normal;font-variant-caps:normal;font-variant-numeric:normal;font-variant-alternates:normal;font-variant-east-asian:normal;font-feature-settings:normal;font-variation-settings:normal;text-indent:0;text-align:start;text-decoration-line:none;text-decoration-style:solid;text-decoration-color:#000;text-transform:none;text-orientation:mixed;white-space:normal;shape-padding:0;shape-margin:0;inline-size:0;isolation:auto;mix-blend-mode:normal;solid-color:#000;solid-opacity:1" d="M11.211.97c1.2.396 2.326 1.57 2.233 3.107 0 .57-.223 1.214-.533 1.645.42.277.764.46.983.906.016.031.032.062.046.095.319.062.62.177.887.342.043.026.086.056.13.084a.314.314 0 00.183-.38 1.727 1.727 0 00-.068-.189l-.001-.002c-.016-.038-.035-.074-.054-.11-.012-.026-.024-.052-.038-.076-.019-.034-.04-.066-.061-.099-.016-.024-.03-.048-.047-.071a2.177 2.177 0 00-.202-.245 3.064 3.064 0 00-.298-.275 4.265 4.265 0 00-.335-.246c.075-.104.148-.212.214-.323.099-.167.184-.343.245-.528a1.942 1.942 0 00.096-.589 2.54 2.54 0 00-.736-1.79S12.903.983 11.211.97z" overflow="visible" fill="#aabfd0"/><path d="M8.186 13.877a.314.314 0 00-.231.116L5.89 16.518l-1.619.04a.315.315 0 00-.27.162l-.589 1.08c.131.227.3.44.52.623.01.009.244.222.58.33.36.115.803.13 1.275-.014.555-.17 1.037-.565 1.524-1.053.208.22.386.471.68.589.064.036.147.09.331.144.25.073.6.117.988.03.514-.114.754-.395.983-.645.004-.004.007-.01.012-.013.284.159.596.294.983.294.34 0 .595-.145.851-.283a.015.015 0 01.004.005c.219.241.442.525.967.642.389.086.738.042.988-.03.184-.053.268-.108.332-.144.293-.117.471-.369.679-.589.488.489.969.883 1.523 1.053.472.145.916.129 1.276.014.167-.054.308-.133.41-.2l.74 1.357c.41.753-.15 1.697-1.006 1.697h1.256c.857 0 1.417-.944 1.007-1.697l-1.23-2.254-.107-.197-.539-.987a.314.314 0 00-.28-.165l-7.693-1.142-1.958-1.017a.314.314 0 00-.323-.271z" style="line-height:normal;font-variant-ligatures:normal;font-variant-position:normal;font-variant-caps:normal;font-variant-numeric:normal;font-variant-alternates:normal;font-variant-east-asian:normal;font-feature-settings:normal;font-variation-settings:normal;text-indent:0;text-align:start;text-decoration-line:none;text-decoration-style:solid;text-decoration-color:#000;text-transform:none;text-orientation:mixed;white-space:normal;shape-padding:0;shape-margin:0;inline-size:0;isolation:auto;mix-blend-mode:normal;solid-color:#000;solid-opacity:1" overflow="visible" fill="#67342d"/><path d="M16.177 12.184a.314.314 0 00-.1.012c-3.204.852-6.446.796-9.739-.003a.314.314 0 00-.315.105s-.802.958-1.41 2.094c-.304.568-.567 1.18-.65 1.774-.081.588.046 1.058.53 1.452.015.014.117.108.287.162.182.059.44.077.751-.018.494-.152 1.163-.582 1.96-1.55.023.235.072.486.199.721.125.232.347.431.635.543.03.018.348.22.796.12.336-.074.712-1.215 1.08-1.704.013.027.002.027.016.053.163.301.526.638 1.072.638.526 0 .844.282.974-.023.354.451.63.74.954.812.448.099.765-.103.796-.121.288-.112.51-.31.635-.543.126-.235.175-.486.2-.72.796.968 1.521 1.566 2.015 1.718.31.095.541.133.723.074.17-.054.272-.148.288-.162.483-.394.411-.864.33-1.452-.083-.593-.09-1.206-.395-1.774-.608-1.136-1.41-2.094-1.41-2.094a.314.314 0 00-.222-.114z" style="line-height:normal;font-variant-ligatures:normal;font-variant-position:normal;font-variant-caps:normal;font-variant-numeric:normal;font-variant-alternates:normal;font-variant-east-asian:normal;font-feature-settings:normal;font-variation-settings:normal;text-indent:0;text-align:start;text-decoration-line:none;text-decoration-style:solid;text-decoration-color:#000;text-transform:none;text-orientation:mixed;white-space:normal;shape-padding:0;shape-margin:0;inline-size:0;isolation:auto;mix-blend-mode:normal;solid-color:#000;solid-opacity:1" overflow="visible" fill="#dc1c4b"/><path style="line-height:normal;font-variant-ligatures:normal;font-variant-position:normal;font-variant-caps:normal;font-variant-numeric:normal;font-variant-alternates:normal;font-variant-east-asian:normal;font-feature-settings:normal;font-variation-settings:normal;text-indent:0;text-align:start;text-decoration-line:none;text-decoration-style:solid;text-decoration-color:#000;text-transform:none;text-orientation:mixed;white-space:normal;shape-padding:0;shape-margin:0;inline-size:0;isolation:auto;mix-blend-mode:normal;solid-color:#000;solid-opacity:1" d="M16.553 15.648c.304.568.564 1.18.647 1.774.025.18.028.361.01.539.17.013.317-.004.432-.04.17-.055.272-.15.288-.163.483-.394.425-.976.344-1.565-.083-.593-.343-1.205-.647-1.773a40.364 40.364 0 00-1.227-2.122.314.314 0 00-.25-.115.301.301 0 00-.073.013c-3.204.852-6.446.796-9.74-.003a.314.314 0 00-.314.105s-.405.49-.854 1.172c2.757.443 5.578.598 8.047.321.982-.11 2.39.243 2.9 1.084.17.28.316.55.437.773z" overflow="visible" fill="#b31e48"/><path style="line-height:normal;font-variant-ligatures:normal;font-variant-position:normal;font-variant-caps:normal;font-variant-numeric:normal;font-variant-alternates:normal;font-variant-east-asian:normal;font-feature-settings:normal;font-variation-settings:normal;text-indent:0;text-align:start;text-decoration-line:none;text-decoration-style:solid;text-decoration-color:#000;text-transform:none;text-orientation:mixed;white-space:normal;shape-padding:0;shape-margin:0;inline-size:0;isolation:auto;mix-blend-mode:normal;solid-color:#000;solid-opacity:1" d="M14.365 6.54a2.56 2.56 0 00-.77.19.314.314 0 00-.166.413c.067.16.253.235.413.167a1.919 1.919 0 011.764.137.314.314 0 00.332-.534 2.54 2.54 0 00-.858-.332 2.548 2.548 0 00-.915-1.159 2.54 2.54 0 00-.31-3.195.314.314 0 00-.23-.095.314.314 0 00-.216.536c.341.347.553.822.553 1.35a1.9 1.9 0 01-.358 1.106 2.536 2.536 0 00-.898-.165.314.314 0 100 .628c.3 0 .58.07.893.227.313.157.582.413.766.726zm-4.646-.953a.314.314 0 000-.628c-.316 0-.618.059-.898.165a1.9 1.9 0 01-.36-1.107c0-.527.211-1.002.553-1.35a.314.314 0 00-.448-.44 2.549 2.549 0 00-.308 3.197 2.555 2.555 0 00-.913 1.16c-.31.06-.6.17-.859.332a.314.314 0 10.332.533c.295-.184.641-.29 1.016-.29.266 0 .519.054.749.151a.314.314 0 10.245-.58c-.24-.1-.499-.165-.77-.188.183-.312.45-.568.765-.727.316-.16.597-.228.896-.228zm-5.34 1.885a.314.314 0 000 .628 5.65 5.65 0 015.562 4.662 21.8 21.8 0 01-3.507-.547.779.779 0 01.025-1.035c.109.085.223.165.345.236a.314.314 0 00.318-.542c-.728-.426-1.142-1.18-1.18-1.848a.314.314 0 10-.629.034c.034.587.276 1.187.695 1.682a1.416 1.416 0 00-.146 1.758 13.818 13.818 0 00-1.25 1.891c-.304.568-.566 1.182-.648 1.775-.03.21-.03.421 0 .625L2.262 19.91c-.41.752.152 1.698 1.008 1.698h16.04c.856 0 1.416-.946 1.006-1.698l-1.84-3.372c-.01-.76-.354-1.559-.667-2.147a13.807 13.807 0 00-1.248-1.89 1.404 1.404 0 00-.146-1.759c.419-.495.66-1.094.694-1.682a.314.314 0 00-.295-.33c-.195-.02-.323.14-.33.296-.039.667-.453 1.422-1.181 1.848-.15.087-.2.28-.114.429.088.15.282.2.431.11a3.1 3.1 0 00.343-.233.779.779 0 01.022 1.038c-1.163.303-2.33.488-3.505.56A5.648 5.648 0 0118.046 8.1a.314.314 0 000-.628 6.284 6.284 0 00-6.206 5.334 19.36 19.36 0 01-1.259-.007C10.12 9.784 7.52 7.472 4.379 7.472zm14.562.371a.314.314 0 00.243.371c.187.04.398.097.613.167a.314.314 0 00.197-.596 6.43 6.43 0 00-.682-.185c-.187-.036-.336.052-.371.243zM3.113 7.6a6.404 6.404 0 00-.682.185.314.314 0 00.197.598c.215-.07.426-.128.612-.167a.314.314 0 00.244-.373c-.05-.2-.199-.268-.371-.243zm12.895 5.233c.092.113.716.864 1.247 1.855.285.532.515 1.096.58 1.563.006.797-.173 1.118-.759 1.05-.4-.122-1.152-.614-2.23-2.156-.195-.278-.632-.092-.566.241.078.46.04.82-.102 1.248-.228.32-.462.404-.74.348-.238-.053-.636-.277-1.083-1.17-.155-.306-.62-.175-.593.168-.016.373-.2.6-.473.603-.318 0-.425-.138-.517-.309a1.062 1.062 0 01-.112-.348c-.028-.314-.45-.395-.593-.113-.446.892-.845 1.116-1.083 1.169-.343.05-.548.008-.74-.348-.18-.406-.161-.802-.102-1.248.068-.334-.372-.522-.566-.24-1.079 1.54-1.83 2.033-2.23 2.156-.683.188-.815-.61-.758-1.051.064-.467.295-1.031.58-1.563.53-.992 1.155-1.745 1.247-1.857 1.252.291 2.5.475 3.524.53 1.022.054 1.549.056 2.554.013 1.006-.044 2.263-.225 3.515-.54zM7.49 16.212c.024.234.073.486.2.721.237.508.853.808 1.43.663.69-.251.83-.577 1.08-1.076.283.391.7.682 1.088.691.526 0 .844-.346.974-.651.354.451.715.965 1.038 1.036.61.109 1.23-.257 1.431-.663.127-.235.176-.487.2-.721.796.968 1.465 1.538 1.96 1.69.74.2.993-.045 1.345-.493l1.527 2.803a.51.51 0 01-.454.767H3.27a.51.51 0 01-.457-.767l1.463-2.68c.316.417.775.54 1.255.37.494-.152 1.163-.722 1.96-1.69z" overflow="visible"/></g></svg><svg viewBox="0 0 22.578 22.578" id="gfdgfre_(3)" xmlns="http://www.w3.org/2000/svg"><g stroke-width=".821"><path style="-inkscape-stroke:none" d="M12.184 1.749c-5.351 0-9.129.976-9.129.976a.322.322 0 00-.012.62c2.447.733 4.064 1.517 4.583 2.226.259.355.295.642.104 1.048-.19.406-.666.914-1.473 1.478-1.614 1.127-1.944 2.603-1.585 3.885.358 1.282 1.32 2.39 2.204 3.075a.322.322 0 00.045.031l2.975 1.6a.322.322 0 00.467-.212l.462-1.997a.322.322 0 00.002-.01c.353-1.82 1.555-3.642 4.328-4.485 1.29-.392 2.208-.84 2.768-1.544.56-.704.7-1.627.526-2.807-.072-.486.05-.83.278-1.126.23-.295.586-.532.964-.707.758-.35 1.576-.443 1.576-.443a.322.322 0 00.046-.633s-3.778-.976-9.13-.976z" color="#000" fill="#d0e2ec"/><path style="-inkscape-stroke:none" d="M10.21 4.7c-1.682.086-3.132.25-4.18.47-.523.109-.944.231-1.26.378a1.47 1.47 0 00-.406.257.62.62 0 00-.209.442c0 .172.088.32.188.422.1.102.22.177.36.247.28.14.65.257 1.109.362a.322.322 0 00.385-.243.322.322 0 00-.24-.385c-.43-.1-.766-.21-.966-.31-.075-.037-.108-.066-.14-.093a.898.898 0 01.19-.114c.238-.11.627-.229 1.123-.333.993-.208 2.418-.37 4.078-.455a.322.322 0 00.307-.338.322.322 0 00-.338-.307zM12.881 4.634a.322.322 0 00-.323.323.322.322 0 00.323.322c2.308 0 4.397.146 5.894.376.748.115 1.35.253 1.74.395.195.07.338.143.407.195.07.052.04.055.04.003 0-.053.028-.05-.042.002a1.73 1.73 0 01-.407.198.322.322 0 00-.193.414.322.322 0 00.414.192c.23-.083.42-.172.574-.288.154-.115.3-.287.3-.518 0-.23-.144-.402-.298-.517a2.186 2.186 0 00-.574-.288c-.46-.167-1.088-.307-1.861-.426-1.545-.238-3.659-.383-5.994-.383zM9.815 8.114a62.855 62.855 0 00-5.38.511c-.821.12-1.54.25-2.07.393a3.467 3.467 0 00-.657.233.905.905 0 00-.238.162.484.484 0 00-.152.338c0 .172.087.32.188.422.1.102.219.177.36.247.28.14.65.256 1.108.362a.322.322 0 00.386-.243.322.322 0 00-.24-.385c-.43-.1-.767-.21-.967-.31-.038-.019-.044-.03-.071-.048.108-.047.247-.099.452-.154.484-.13 1.186-.262 1.995-.379 1.616-.234 3.66-.42 5.32-.504a.322.322 0 00.307-.338.322.322 0 00-.34-.307zM7.833 10.934a.322.322 0 00-.288.355.322.322 0 00.354.288c1.867-.192 3.82-.12 5.294.071.737.096 1.357.221 1.771.35.176.055.289.107.376.153-.032.021-.044.036-.095.062-.2.1-.536.21-.966.309a.322.322 0 00-.24.388.322.322 0 00.385.24c.458-.105.828-.219 1.109-.359.14-.07.259-.145.36-.248.1-.102.188-.25.188-.42a.49.49 0 00-.124-.317.847.847 0 00-.215-.177 2.66 2.66 0 00-.587-.245c-.473-.147-1.116-.277-1.879-.376a24.648 24.648 0 00-5.443-.074z" color="#000" fill="#dc1c4b"/><path d="M7.023 13.158a.882.882 0 00-.716.383c-.166.343-.159.619-.154.87.238.242.483.46.722.646.015.012.03.022.046.03l2.976 1.6c.187.1.418-.004.466-.211l.462-1.997.002-.01c.055-.28.129-.558.225-.834a9.374 9.374 0 00-.596-.313l-.081-.04a.94.94 0 00-.557-.08.94.94 0 00-.505.248.895.895 0 00-.249.464 4.376 4.376 0 00-.336-.195 6.466 6.466 0 00-1.512-.54.813.813 0 00-.193-.02z" fill="#aabfd2"/><path style="-inkscape-stroke:none" d="M7.095 13.7a.322.322 0 00-.334.505s.05.073.072.18c.021.109.029.206-.12.358a3.795 3.795 0 00-.756 1.185c-.209.512-.33 1.126-.19 1.757a2.2 2.2 0 00.83 1.276c.774.593 1.602.383 1.602.383a.322.322 0 00.22-.21l1.206-3.577a.322.322 0 00-.002-.21c-.193-.544-.66-.902-1.143-1.154a5.998 5.998 0 00-1.385-.493z" color="#000" fill="#dc1c4b"/><path d="M8.863 14.422l-.015.033c-.145.299-.637.743-1.058 1.347-.423.607-.781 1.396-.781 2.309 0 .42.084.818.236 1.183.527.159.954.05.954.05a.322.322 0 00.22-.21l1.206-3.577a.322.322 0 00-.002-.21c-.141-.397-.428-.695-.76-.925z" fill="#b11e48"/><path style="-inkscape-stroke:none" d="M3.2 12.71a1 1 0 00-.994.995c0 .546.449.997.995.997.545 0 .995-.451.994-.997a1 1 0 00-.994-.995zM18.304 9.699a1 1 0 00-.995.995 1 1 0 00.995.995 1 1 0 00.995-.995 1 1 0 00-.995-.995zM1.965 4.553a1 1 0 00-.995.995 1 1 0 00.995.995 1 1 0 00.995-.995 1 1 0 00-.995-.995zM13.353 13.065a5.977 5.977 0 00-1.386.49c-.483.252-.952.61-1.145 1.155a.322.322 0 00-.016.107v3.696a.322.322 0 00.35.322l2.068-.19a.322.322 0 00.083-.017c.175-.065.36-.164.54-.303.41-.308.717-.75.834-1.276.14-.63.016-1.245-.193-1.756a3.794 3.794 0 00-.757-1.186c-.148-.151-.138-.251-.117-.36.022-.107.072-.18.072-.18a.322.322 0 00-.333-.502z" color="#000" fill="#dc1c4b"/><path style="-inkscape-stroke:none" d="M11.417 13.909c-.26.21-.478.471-.595.8a.322.322 0 00-.017.107v3.697a.322.322 0 00.35.321l2.069-.19a.322.322 0 00.084-.017 2.313 2.313 0 00.8-.53c0-.095-.006-.19-.013-.282v-.002a.922.922 0 00-.633-.79c-.264-.08-.541.006-.767.164.158-.819.13-1.596-.254-2.233-.258-.427-.61-.76-1.024-1.045zm1.1 3.39l.005.005c-.008.009-.021.01-.029.019a.089.089 0 01.024-.023z" color="#000" fill="#b11e48"/><path style="-inkscape-stroke:none" d="M10.106 13.834a.322.322 0 00-.436.42s.046.11.043.258c-.003.148-.031.294-.264.445-.361.235-.81.638-1.186 1.176-.375.538-.676 1.217-.676 1.978 0 1.517 1.35 2.718 2.971 2.718 1.62 0 2.97-1.201 2.97-2.718 0-.085-.002-.17-.009-.252a.322.322 0 00-.573-.176.547.547 0 01-.429.195.555.555 0 01-.371-.129c-.07-.069-.104-.129-.055-.302.252-.883.208-1.61-.145-2.195-.353-.584-.962-.992-1.754-1.378a.322.322 0 00-.003 0z" color="#000" fill="#dc1c4b"/><path style="-inkscape-stroke:none" d="M12.881 5.279a.322.322 0 00-.324.323.322.322 0 00.324.322c2.18 0 4.157.13 5.632.34a6.526 6.526 0 00-.064-.63l-.004-.032c-1.497-.201-3.436-.323-5.564-.323zm-2.67.066a37.3 37.3 0 00-2.593.217.48.48 0 01.008.01c.157.215.232.405.224.612.714-.082 1.52-.15 2.392-.194a.322.322 0 00.306-.338.322.322 0 00-.337-.307zM9.815 8.758a64.965 64.965 0 00-4.667.416 3.39 3.39 0 00-.383.702 63.179 63.179 0 015.084-.473.322.322 0 00.307-.337.322.322 0 00-.34-.308zm.363 2.705c-.769 0-1.562.036-2.345.116a.322.322 0 00-.288.355.322.322 0 00.355.288 23.95 23.95 0 013.936-.057c.158-.21.336-.413.534-.607a25.24 25.24 0 00-2.192-.095z" color="#000" fill="#aabfd2"/><path style="-inkscape-stroke:none" d="M18.304 9.699c-.441 0-.82.293-.948.693a1 1 0 011.25 1.25c.4-.13.693-.507.693-.948a1 1 0 00-.995-.995zM3.2 12.71c-.44 0-.818.293-.947.693a1 1 0 011.25 1.25c.4-.13.692-.507.692-.948a1 1 0 00-.995-.995zM1.965 4.553c-.44 0-.819.292-.948.693a1 1 0 011.25 1.25c.4-.13.693-.508.693-.948a1 1 0 00-.995-.995z" color="#000" fill="#b11e48"/></g></svg><svg viewBox="0 0 22.578 22.578" id="gfdgfre_(4)" xmlns="http://www.w3.org/2000/svg"><g color="#000" font-weight="400" font-family="sans-serif"><path style="line-height:normal;font-variant-ligatures:normal;font-variant-position:normal;font-variant-caps:normal;font-variant-numeric:normal;font-variant-alternates:normal;font-variant-east-asian:normal;font-feature-settings:normal;font-variation-settings:normal;text-indent:0;text-align:start;text-decoration-line:none;text-decoration-style:solid;text-decoration-color:#000;text-transform:none;text-orientation:mixed;white-space:normal;shape-padding:0;shape-margin:0;inline-size:0;isolation:auto;mix-blend-mode:normal;solid-color:#000;solid-opacity:1" d="M11.606 1.338c-1.942.107-3.47.925-4.156 1.35-.562-.698-1.4-1.193-2.388-1.193a3.142 3.142 0 00-3.137 3.137c0 .8.36 1.493.877 2.046-.352.113-.717.189-1.022.503-.436.452-.74 1.147-.795 2.123-.002.012-.114.804.314 1.616.432.818 1.44 1.618 3.42 1.636.009 0 .995.04 2.495.05a.333.333 0 00.034 0l12.59-1.236a.333.333 0 00.105-.027c.52-.237 1.119-.667 1.437-1.413.319-.746.339-1.774-.174-3.147a.333.333 0 00-.012-.027s-.287-.602-.87-1.125c-.536-.48-1.395-.842-2.442-.668-1.824-2.936-4.226-3.74-6.276-3.625z" overflow="visible" fill="#7d8e9e"/><path style="line-height:normal;font-variant-ligatures:normal;font-variant-position:normal;font-variant-caps:normal;font-variant-numeric:normal;font-variant-alternates:normal;font-variant-east-asian:normal;font-feature-settings:normal;font-variation-settings:normal;text-indent:0;text-align:start;text-decoration-line:none;text-decoration-style:solid;text-decoration-color:#000;text-transform:none;text-orientation:mixed;white-space:normal;shape-padding:0;shape-margin:0;inline-size:0;isolation:auto;mix-blend-mode:normal;solid-color:#000;solid-opacity:1" d="M20.03 11.3c.5-.245 1.05-.665 1.35-1.37.098-.228.163-.487.198-.77l.01-.082a3.44 3.44 0 00.014-.204v-.13c.001-.068.002-.135-.002-.206v-.002a4.372 4.372 0 00-.026-.316c-.007-.052-.017-.107-.026-.16a5.18 5.18 0 00-.15-.683c-.013-.047-.025-.094-.04-.142a7.647 7.647 0 00-.152-.452l-.012-.026v-.001s-.019-.038-.055-.102a4.144 4.144 0 00-.434-.626v-.001a3.996 3.996 0 00-.381-.397c-.201-.18-.447-.343-.732-.467a2.902 2.902 0 00-.961-.237 3.148 3.148 0 00-.748.036 9.61 9.61 0 00-1.011-1.356 7.825 7.825 0 00-.718-.705 6.936 6.936 0 00-.744-.559 6.175 6.175 0 00-2.67-.971 6.45 6.45 0 00-.746-.045 7.52 7.52 0 00-1.096.083 8.52 8.52 0 00-1.28.291 9.454 9.454 0 00-2.168.988 3.49 3.49 0 00-.742-.684 2.9 2.9 0 00-2.048-.481c-.034.003-.067.01-.1.015a3.09 3.09 0 00-.316.068l-.07.019c-.128.037-.251.083-.37.136-.014.006-.026.013-.04.018a3.11 3.11 0 00-.316.168l-.052.032a3.156 3.156 0 00-.62.511l-.015.017a3.16 3.16 0 00-.255.313l-.003.004a3.114 3.114 0 00-.578 1.806c0 .221.03.433.08.637a3.146 3.146 0 012.377-2.364c1.299-.387 1.892.722 2.302 1.49 1.593-.782 2.685-1.577 4.64-1.697 3.21.066 3.951 1.11 5.228 3.598 1.657-.136 2.628.008 3.396 1.761.55 1.121.46 2.326.083 3.244z" overflow="visible" fill="#5b6571"/><path style="line-height:normal;font-variant-ligatures:normal;font-variant-position:normal;font-variant-caps:normal;font-variant-numeric:normal;font-variant-alternates:normal;font-variant-east-asian:normal;font-feature-settings:normal;font-variation-settings:normal;text-indent:0;text-align:start;text-decoration-line:none;text-decoration-style:solid;text-decoration-color:#000;text-transform:none;text-orientation:mixed;white-space:normal;shape-padding:0;shape-margin:0;inline-size:0;isolation:auto;mix-blend-mode:normal;solid-color:#000;solid-opacity:1" d="M14.59 6.496c-1.12 0-1.993.536-2.719 1.226-.536-.415-1.181-.703-1.945-.703a3.575 3.575 0 00-3.557 3.557c0 .146.073.167.094.295-.012.007-.016.001-.028.01-.534.382-.989.958-1.294 1.688.391.012 1.033.03 2.073.036a.333.333 0 00.034 0l12.59-1.235a.333.333 0 00.106-.027c.456-.208.971-.563 1.306-1.15a3.978 3.978 0 00-.558-.477c-.662-.464-1.54-.55-2.458-.441-.66-1.524-1.873-2.779-3.643-2.779z" overflow="visible" fill="#5b6571"/><path style="line-height:normal;font-variant-ligatures:normal;font-variant-position:normal;font-variant-caps:normal;font-variant-numeric:normal;font-variant-alternates:normal;font-variant-east-asian:normal;font-feature-settings:normal;font-variation-settings:normal;text-indent:0;text-align:start;text-decoration-line:none;text-decoration-style:solid;text-decoration-color:#000;text-transform:none;text-orientation:mixed;white-space:normal;shape-padding:0;shape-margin:0;inline-size:0;isolation:auto;mix-blend-mode:normal;solid-color:#000;solid-opacity:1" d="M14.59 7.744c-1.248 0-2.207.81-2.711 1.87-.38-.759-1.052-1.347-1.953-1.347a2.314 2.314 0 00-2.309 2.31c0 .387.194.708.368 1.03-.268.056-.534.08-.825.288-.426.305-.812.817-1.027 1.604a.333.333 0 00-.01.042s-.086.602.241 1.206c.328.605 1.094 1.181 2.54 1.194.009 0 1.696.068 3.815.022 2.109-.045 4.622-.201 6.372-.66.013-.001.731-.048 1.336-.534.306-.245.58-.614.686-1.117.105-.504.045-1.126-.248-1.89a.333.333 0 00-.013-.029s-.28-.575-.877-.995c-.533-.374-1.392-.515-2.397-.13-.2-1.606-1.398-2.864-2.987-2.864z" overflow="visible" fill="#aabfd0"/><path d="M8.627 16.594a.333.333 0 00-.335.332v1.331a.333.333 0 00.335.335.333.333 0 00.331-.335v-1.33a.333.333 0 00-.331-.333zM11.287 16.594a.333.333 0 00-.332.332v1.331a.333.333 0 00.332.335.333.333 0 00.334-.335v-1.33a.333.333 0 00-.334-.333zM13.95 16.594a.333.333 0 00-.332.332v1.331a.333.333 0 00.332.335.333.333 0 00.334-.335v-1.33a.333.333 0 00-.334-.333zM16.612 16.594a.333.333 0 00-.334.332v1.331a.333.333 0 00.334.335.333.333 0 00.332-.335v-1.33a.333.333 0 00-.332-.333zM7.295 19.257a.333.333 0 00-.334.332v1.331a.333.333 0 00.334.332.333.333 0 00.332-.332V19.59a.333.333 0 00-.332-.332zM9.958 19.257a.333.333 0 00-.334.332v1.331a.333.333 0 00.334.332.333.333 0 00.332-.332V19.59a.333.333 0 00-.332-.332zM12.618 19.257a.333.333 0 00-.331.332v1.331a.333.333 0 00.331.332.333.333 0 00.334-.332V19.59a.333.333 0 00-.334-.332zM15.281 19.257a.333.333 0 00-.332.332v1.331a.333.333 0 00.332.332.333.333 0 00.334-.332V19.59a.333.333 0 00-.334-.332z" style="line-height:normal;font-variant-ligatures:normal;font-variant-position:normal;font-variant-caps:normal;font-variant-numeric:normal;font-variant-alternates:normal;font-variant-east-asian:normal;font-feature-settings:normal;font-variation-settings:normal;text-indent:0;text-align:start;text-decoration-line:none;text-decoration-style:solid;text-decoration-color:#000;text-transform:none;text-orientation:mixed;white-space:normal;shape-padding:0;shape-margin:0;inline-size:0;isolation:auto;mix-blend-mode:normal;solid-color:#000;solid-opacity:1" overflow="visible" fill="#2276bc"/></g></svg></svg>