<?xml version="1.0" encoding="UTF-8" standalone="no"?>
<svg
   inkscape:export-ydpi="576"
   inkscape:export-xdpi="576"
   inkscape:export-filename="/media/taufikramadhan/Data/Tr Design Studio/Project Design/TR Creative Design/Icon Design/Project Hiring/Icon Icons/008 - Weather And Season/Send/3 - Flat/24 - Bon Fire.png"
   width="64pt"
   height="64pt"
   viewBox="0 0 22.577778 22.577778"
   version="1.1"
   id="svg831"
   inkscape:version="1.1.1 (1:1.1+202109281943+c3084ef5ed)"
   sodipodi:docname="25 - Tornado Fire.svg"
   xmlns:inkscape="http://www.inkscape.org/namespaces/inkscape"
   xmlns:sodipodi="http://sodipodi.sourceforge.net/DTD/sodipodi-0.dtd"
   xmlns="http://www.w3.org/2000/svg"
   xmlns:svg="http://www.w3.org/2000/svg"
   xmlns:rdf="http://www.w3.org/1999/02/22-rdf-syntax-ns#"
   xmlns:cc="http://creativecommons.org/ns#"
   xmlns:dc="http://purl.org/dc/elements/1.1/">
  <defs
     id="defs825">
    <pattern
       id="EMFhbasepattern"
       patternUnits="userSpaceOnUse"
       width="6"
       height="6"
       x="0"
       y="0" />
    <pattern
       id="EMFhbasepattern-9"
       patternUnits="userSpaceOnUse"
       width="6"
       height="6"
       x="0"
       y="0" />
    <pattern
       id="EMFhbasepattern-0"
       patternUnits="userSpaceOnUse"
       width="6"
       height="6"
       x="0"
       y="0" />
    <pattern
       id="EMFhbasepattern-7"
       patternUnits="userSpaceOnUse"
       width="6"
       height="6"
       x="0"
       y="0" />
    <pattern
       id="EMFhbasepattern-2"
       patternUnits="userSpaceOnUse"
       width="6"
       height="6"
       x="0"
       y="0" />
    <pattern
       id="EMFhbasepattern-98"
       patternUnits="userSpaceOnUse"
       width="6"
       height="6"
       x="0"
       y="0" />
    <pattern
       id="EMFhbasepattern-6"
       patternUnits="userSpaceOnUse"
       width="6"
       height="6"
       x="0"
       y="0" />
    <pattern
       id="EMFhbasepattern-01"
       patternUnits="userSpaceOnUse"
       width="6"
       height="6"
       x="0"
       y="0" />
    <pattern
       id="EMFhbasepattern-07"
       patternUnits="userSpaceOnUse"
       width="6"
       height="6"
       x="0"
       y="0" />
    <pattern
       id="EMFhbasepattern-8"
       patternUnits="userSpaceOnUse"
       width="6"
       height="6"
       x="0"
       y="0" />
    <pattern
       id="EMFhbasepattern-4"
       patternUnits="userSpaceOnUse"
       width="6"
       height="6"
       x="0"
       y="0" />
    <pattern
       id="EMFhbasepattern-40"
       patternUnits="userSpaceOnUse"
       width="6"
       height="6"
       x="0"
       y="0" />
    <pattern
       id="EMFhbasepattern-08"
       patternUnits="userSpaceOnUse"
       width="6"
       height="6"
       x="0"
       y="0" />
    <pattern
       id="EMFhbasepattern-04"
       patternUnits="userSpaceOnUse"
       width="6"
       height="6"
       x="0"
       y="0" />
    <pattern
       id="EMFhbasepattern-014"
       patternUnits="userSpaceOnUse"
       width="6"
       height="6"
       x="0"
       y="0" />
    <pattern
       id="EMFhbasepattern-27"
       patternUnits="userSpaceOnUse"
       width="6"
       height="6"
       x="0"
       y="0" />
    <pattern
       id="EMFhbasepattern-09"
       patternUnits="userSpaceOnUse"
       width="6"
       height="6"
       x="0"
       y="0" />
    <pattern
       id="EMFhbasepattern-5"
       patternUnits="userSpaceOnUse"
       width="6"
       height="6"
       x="0"
       y="0" />
    <pattern
       id="EMFhbasepattern-018"
       patternUnits="userSpaceOnUse"
       width="6"
       height="6"
       x="0"
       y="0" />
  </defs>
  <sodipodi:namedview
     id="base"
     pagecolor="#ffffff"
     bordercolor="#666666"
     borderopacity="1.0"
     inkscape:pageopacity="0.0"
     inkscape:pageshadow="2"
     inkscape:zoom="6.28125"
     inkscape:cx="42.348259"
     inkscape:cy="42.666667"
     inkscape:document-units="pt"
     inkscape:current-layer="layer1"
     showgrid="false"
     units="pt"
     inkscape:window-width="1366"
     inkscape:window-height="705"
     inkscape:window-x="0"
     inkscape:window-y="31"
     inkscape:window-maximized="1"
     inkscape:pagecheckerboard="true"
     inkscape:showpageshadow="false"
     inkscape:object-paths="true"
     inkscape:snap-intersection-paths="true"
     inkscape:snap-smooth-nodes="true"
     inkscape:snap-midpoints="true"
     showguides="false"
     inkscape:snap-bbox="true"
     inkscape:bbox-nodes="true"
     inkscape:snap-nodes="false"
     inkscape:snap-global="true"
     inkscape:document-rotation="0">
    <inkscape:grid
       type="xygrid"
       id="grid1378" />
    <sodipodi:guide
       position="0.97013831,21.607643"
       orientation="78.000048,0"
       id="guide1380"
       inkscape:locked="false" />
    <sodipodi:guide
       position="0.97013831,0.97013129"
       orientation="0,78.000005"
       id="guide1382"
       inkscape:locked="false" />
    <sodipodi:guide
       position="21.607639,0.97013129"
       orientation="-78.000048,0"
       id="guide1384"
       inkscape:locked="false" />
    <sodipodi:guide
       position="21.607639,21.607643"
       orientation="0,-78.000005"
       id="guide1386"
       inkscape:locked="false" />
  </sodipodi:namedview>
  <metadata
     id="metadata828">
    <rdf:RDF>
      <cc:Work
         rdf:about="">
        <dc:format>image/svg+xml</dc:format>
        <dc:type
           rdf:resource="http://purl.org/dc/dcmitype/StillImage" />
      </cc:Work>
    </rdf:RDF>
  </metadata>
  <g
     inkscape:label="Icon"
     inkscape:groupmode="layer"
     id="layer1"
     transform="translate(0,-274.42223)">
    <g
       id="g439935"
       transform="matrix(1.2187319,0,0,1.2187319,75.319924,-177.45688)"
       style="stroke-width:0.820525"
       inkscape:export-filename="/media/taufikramadhan/Data/Tr Design Studio/Project Design/TR Creative Design/Icon Design/Project Hiring/Icon Icons/008 - Weather And Season/Send/3 - Flat/25 - Tornado Fire.png"
       inkscape:export-xdpi="576"
       inkscape:export-ydpi="576">
      <path
         style="color:#000000;fill:#d0e2ec;stroke-width:0.820525;stroke-linecap:round;stroke-linejoin:round;-inkscape-stroke:none"
         d="m -51.804687,372.21289 c -4.39072,0 -7.490235,0.80078 -7.490235,0.80078 a 0.26460996,0.26460996 0 0 0 -0.0098,0.50977 c 2.00754,0.60112 3.334037,1.24416 3.759765,1.82617 0.212864,0.291 0.242243,0.52639 0.08594,0.85937 -0.156306,0.33299 -0.546352,0.75008 -1.208985,1.21289 -1.323848,0.92451 -1.594864,2.13554 -1.300781,3.1875 0.294083,1.05197 1.083118,1.96064 1.808594,2.52344 a 0.26460996,0.26460996 0 0 0 0.03711,0.0254 l 2.441406,1.3125 a 0.26460996,0.26460996 0 0 0 0.382813,-0.17383 l 0.378906,-1.63867 a 0.26460996,0.26460996 0 0 0 0.002,-0.008 c 0.289299,-1.49294 1.275839,-2.98841 3.550782,-3.67969 1.05913,-0.32182 1.811827,-0.69001 2.271484,-1.26758 0.459657,-0.57756 0.574989,-1.3344 0.431641,-2.30273 -0.05909,-0.39923 0.04028,-0.68162 0.228515,-0.92383 0.188235,-0.2422 0.480094,-0.43661 0.791016,-0.58008 0.621843,-0.28693 1.292969,-0.36328 1.292969,-0.36328 a 0.26460996,0.26460996 0 0 0 0.03711,-0.51953 c 0,0 -3.099514,-0.80078 -7.490234,-0.80078 z"
         id="path410864" />
      <path
         style="color:#000000;fill:#dc1c4b;stroke-width:0.820525;stroke-linecap:round;stroke-linejoin:round;-inkscape-stroke:none"
         d="m -53.423828,374.63478 c -1.380476,0.0705 -2.57064,0.2047 -3.429688,0.38476 -0.429523,0.09 -0.774965,0.19035 -1.035156,0.31055 -0.130095,0.0601 -0.240257,0.12427 -0.332031,0.21094 -0.09137,0.0863 -0.171678,0.21249 -0.171875,0.36328 -1.03e-4,0.14065 0.07182,0.26183 0.154297,0.3457 0.08248,0.0839 0.17969,0.14555 0.294922,0.20312 0.230463,0.11515 0.533864,0.21032 0.910156,0.29688 a 0.2645835,0.2645835 0 0 0 0.316406,-0.19922 0.2645835,0.2645835 0 0 0 -0.197265,-0.31641 c -0.352926,-0.0812 -0.628655,-0.1718 -0.792969,-0.2539 -0.06144,-0.0307 -0.08794,-0.0545 -0.115235,-0.0762 0.03335,-0.0259 0.07645,-0.0569 0.15625,-0.0937 0.195684,-0.0904 0.51467,-0.18809 0.921875,-0.27344 0.814411,-0.17071 1.984226,-0.30355 3.345704,-0.37305 a 0.2645835,0.2645835 0 0 0 0.251953,-0.27734 0.2645835,0.2645835 0 0 0 -0.277344,-0.25195 z"
         id="path410930" />
      <path
         style="color:#000000;fill:#dc1c4b;stroke-width:0.820525;stroke-linecap:round;stroke-linejoin:round;-inkscape-stroke:none"
         d="m -51.232422,374.58008 a 0.2645835,0.2645835 0 0 0 -0.265625,0.26562 0.2645835,0.2645835 0 0 0 0.265625,0.26367 c 1.893891,0 3.607972,0.11988 4.835938,0.3086 0.613982,0.0944 1.108111,0.20804 1.427734,0.32422 0.159812,0.0581 0.276933,0.11724 0.333984,0.16015 0.05705,0.0429 0.03306,0.0453 0.0332,0.002 -2.4e-5,-0.043 0.02225,-0.0411 -0.03516,0.002 -0.05741,0.043 -0.173661,0.10386 -0.333984,0.16211 a 0.2645835,0.2645835 0 0 0 -0.158203,0.33984 0.2645835,0.2645835 0 0 0 0.339844,0.15821 c 0.189217,-0.0688 0.344132,-0.14141 0.470703,-0.23633 0.126571,-0.0949 0.246196,-0.23619 0.246093,-0.42578 -1.83e-4,-0.18858 -0.118258,-0.32914 -0.24414,-0.42383 -0.126319,-0.095 -0.281779,-0.16766 -0.470703,-0.23633 -0.37785,-0.13735 -0.893388,-0.25218 -1.527344,-0.34961 -1.267913,-0.19486 -3.002102,-0.31445 -4.917969,-0.31445 z"
         id="path50394" />
      <path
         style="color:#000000;fill:#dc1c4b;stroke-width:0.820525;stroke-linecap:round;stroke-linejoin:round;-inkscape-stroke:none"
         d="m -53.748047,377.43555 c -1.379541,0.0706 -3.064478,0.22447 -4.414062,0.41992 -0.674793,0.0977 -1.264157,0.20494 -1.699219,0.32226 -0.217531,0.0587 -0.395353,0.11842 -0.539063,0.19141 -0.07185,0.0365 -0.135193,0.0738 -0.195312,0.13281 -0.05977,0.0587 -0.124667,0.15531 -0.125,0.27735 -8.6e-5,0.14065 0.07182,0.26184 0.154297,0.3457 0.08247,0.0839 0.179696,0.14554 0.294922,0.20312 0.23045,0.11518 0.533869,0.21019 0.910156,0.29688 a 0.2645835,0.2645835 0 0 0 0.316406,-0.19922 0.2645835,0.2645835 0 0 0 -0.197265,-0.31641 c -0.352958,-0.0813 -0.628629,-0.17176 -0.792969,-0.2539 -0.03133,-0.0157 -0.0359,-0.0248 -0.05859,-0.0391 0.08914,-0.0393 0.202907,-0.0816 0.371094,-0.12696 0.396767,-0.107 0.973509,-0.2145 1.636719,-0.31054 1.326418,-0.1921 3.002822,-0.34439 4.365234,-0.41407 a 0.2645835,0.2645835 0 0 0 0.251953,-0.27734 0.2645835,0.2645835 0 0 0 -0.279297,-0.25195 z"
         id="path51011" />
      <path
         style="color:#000000;fill:#dc1c4b;stroke-width:0.820525;stroke-linecap:round;stroke-linejoin:round;-inkscape-stroke:none"
         d="m -55.375,379.75 a 0.2645835,0.2645835 0 0 0 -0.236328,0.29102 0.2645835,0.2645835 0 0 0 0.291016,0.23632 c 1.531432,-0.15733 3.134638,-0.0979 4.34375,0.0586 0.604555,0.0782 1.113554,0.18107 1.453125,0.28711 0.144047,0.045 0.236756,0.0872 0.308593,0.125 -0.02625,0.0178 -0.03643,0.03 -0.07813,0.0508 -0.164349,0.0821 -0.440043,0.17272 -0.792968,0.2539 a 0.2645835,0.2645835 0 0 0 -0.197266,0.31836 0.2645835,0.2645835 0 0 0 0.316406,0.19727 c 0.376292,-0.0866 0.679714,-0.17983 0.910156,-0.29492 0.115221,-0.0575 0.212443,-0.11933 0.294922,-0.20313 0.08248,-0.0838 0.154366,-0.20501 0.154297,-0.3457 3.71e-4,-0.1085 -0.04918,-0.19816 -0.101562,-0.25977 -0.05239,-0.0616 -0.111027,-0.10513 -0.175782,-0.14453 -0.129508,-0.0788 -0.288425,-0.14059 -0.482421,-0.20117 -0.387993,-0.12115 -0.915629,-0.22765 -1.541016,-0.30859 -1.250774,-0.16188 -2.884722,-0.22309 -4.466797,-0.0605 z"
         id="path51515" />
      <path
         id="path420381"
         style="fill:#aabfd2;fill-opacity:1;stroke-width:3.1012;stroke-linecap:round;stroke-linejoin:round"
         d="m -211.80273,383.65234 c -0.8712,0.0103 -1.73818,0.45673 -2.22071,1.1875 -0.51407,1.06501 -0.49237,1.9184 -0.47656,2.69532 0.73672,0.75372 1.49676,1.42909 2.24023,2.00586 0.0441,0.0358 0.0911,0.0679 0.14063,0.0957 l 9.22852,4.96094 c 0.58035,0.30989 1.29667,-0.0154 1.44531,-0.65625 l 1.43359,-6.19336 c 0.003,-0.0104 0.005,-0.0208 0.008,-0.0312 0.16779,-0.86588 0.3973,-1.73063 0.69727,-2.58594 -0.58751,-0.34051 -1.2011,-0.66112 -1.83594,-0.9707 -0.005,-2e-5 -0.009,-2e-5 -0.0137,0 l -0.25195,-0.125 c -0.53205,-0.2589 -1.14295,-0.33712 -1.72657,-0.24414 -0.58362,0.093 -1.13917,0.35629 -1.56445,0.76757 -0.4015,0.38833 -0.66144,0.89629 -0.77344,1.4375 -0.34798,-0.22273 -0.69888,-0.42425 -1.04296,-0.60351 -1.68893,-0.87991 -3.41795,-1.38151 -4.6875,-1.67578 -0.19683,-0.0458 -0.39857,-0.0668 -0.59961,-0.0645 z"
         transform="matrix(0.26458334,0,0,0.26458334,0,280.06666)"
         sodipodi:nodetypes="sccccccccccccsscscss" />
      <path
         style="color:#000000;fill:#dc1c4b;stroke-width:0.820525;stroke-linecap:round;stroke-linejoin:round;-inkscape-stroke:none"
         d="m -55.980469,382.01953 a 0.26460847,0.26460847 0 0 0 -0.273437,0.41406 c 0,0 0.041,0.0599 0.05859,0.14844 0.01759,0.0886 0.02387,0.16846 -0.09766,0.29297 -0.209565,0.21468 -0.449686,0.55308 -0.621093,0.97266 -0.171408,0.41958 -0.271397,0.92403 -0.15625,1.4414 0.0959,0.43084 0.346778,0.79375 0.68164,1.04688 0.634507,0.48701 1.314453,0.31445 1.314453,0.31445 a 0.26460847,0.26460847 0 0 0 0.179688,-0.17187 l 0.990234,-2.93555 a 0.26460847,0.26460847 0 0 0 -0.002,-0.17188 c -0.158278,-0.44701 -0.540694,-0.74053 -0.9375,-0.94726 -0.396806,-0.20673 -0.823311,-0.33165 -1.136719,-0.4043 z"
         id="path410888" />
      <path
         id="path412589"
         style="fill:#b11e48;fill-opacity:1;stroke-width:3.1012;stroke-linecap:round;stroke-linejoin:round"
         d="m -206.0957,387.57227 c -0.0156,0.0341 -0.0309,0.0684 -0.0469,0.10156 -0.44816,0.92738 -1.97428,2.30441 -3.28125,4.17773 -1.31268,1.88164 -2.42187,4.32933 -2.42187,7.16016 3e-5,1.30249 0.26178,2.5373 0.73242,3.66992 1.63446,0.4913 2.95898,0.1543 2.95898,0.1543 a 1.000095,1.000095 0 0 0 0.67969,-0.64844 l 3.74219,-11.0957 a 1.000095,1.000095 0 0 0 -0.008,-0.65039 c -0.43656,-1.23294 -1.32471,-2.15613 -2.35547,-2.86914 z"
         transform="matrix(0.26458334,0,0,0.26458334,0,280.06666)" />
      <path
         style="color:#000000;fill:#dc1c4b;fill-opacity:1;stroke-width:0.820525;stroke-linecap:round;stroke-linejoin:round;-inkscape-stroke:none"
         d="m -59.175781,381.20703 c -0.447959,1e-5 -0.816475,0.36843 -0.816406,0.81641 -6.9e-5,0.44797 0.368447,0.81834 0.816406,0.81836 0.447974,1e-5 0.816474,-0.37037 0.816406,-0.81836 6.8e-5,-0.44799 -0.368432,-0.81642 -0.816406,-0.81641 z"
         id="path410894" />
      <path
         style="color:#000000;fill:#dc1c4b;fill-opacity:1;stroke-width:0.820525;stroke-linecap:round;stroke-linejoin:round;-inkscape-stroke:none"
         d="m -46.783203,378.73633 c -0.447974,-1e-5 -0.816475,0.36841 -0.816406,0.8164 1.42e-4,0.44785 0.368577,0.81642 0.816406,0.81641 0.447814,-1e-5 0.816264,-0.36858 0.816406,-0.81641 6.9e-5,-0.44797 -0.368447,-0.81639 -0.816406,-0.8164 z"
         id="path410900" />
      <path
         style="color:#000000;fill:#dc1c4b;fill-opacity:1;stroke-width:0.820525;stroke-linecap:round;stroke-linejoin:round;-inkscape-stroke:none"
         d="m -60.189453,374.51367 c -0.447823,-10e-6 -0.816256,0.36857 -0.816406,0.81641 -6.9e-5,0.44799 0.368432,0.81641 0.816406,0.8164 0.447959,-10e-6 0.816475,-0.36843 0.816406,-0.8164 -1.5e-4,-0.44783 -0.368598,-0.8164 -0.816406,-0.81641 z"
         id="path410906" />
      <path
         style="color:#000000;fill:#dc1c4b;stroke-width:0.820525;stroke-linecap:round;stroke-linejoin:round;-inkscape-stroke:none"
         d="m -50.845703,381.49805 c -0.313408,0.0726 -0.739913,0.19561 -1.136719,0.40234 -0.396806,0.20673 -0.781174,0.50025 -0.939453,0.94727 a 0.26460847,0.26460847 0 0 0 -0.01367,0.0879 v 3.0332 a 0.26460847,0.26460847 0 0 0 0.28711,0.26367 l 1.697265,-0.15625 a 0.26460847,0.26460847 0 0 0 0.06836,-0.0137 c 0.143619,-0.0533 0.294514,-0.13401 0.443359,-0.24805 0.335959,-0.25319 0.587488,-0.6151 0.683594,-1.04687 0.115146,-0.51737 0.0132,-1.02183 -0.158203,-1.44141 -0.171408,-0.41958 -0.411528,-0.75798 -0.621094,-0.97265 -0.121531,-0.12452 -0.113296,-0.20636 -0.0957,-0.29493 0.01759,-0.0886 0.05859,-0.14843 0.05859,-0.14843 a 0.26460847,0.26460847 0 0 0 -0.273437,-0.41211 z"
         id="path410912" />
      <path
         id="path412748"
         style="color:#000000;fill:#b11e48;fill-opacity:1;stroke-width:3.1012;stroke-linecap:round;stroke-linejoin:round;-inkscape-stroke:none"
         d="m -198.17578,385.98047 c -0.8078,0.65302 -1.48211,1.46107 -1.84375,2.48242 a 1.000095,1.000095 0 0 0 -0.0527,0.33203 v 11.46485 a 1.000095,1.000095 0 0 0 1.08594,0.99609 l 6.41406,-0.58984 a 1.000095,1.000095 0 0 0 0.25977,-0.0527 c 0.54281,-0.20145 1.11322,-0.50648 1.67578,-0.9375 0.28585,-0.21542 0.55425,-0.45164 0.80469,-0.70703 -0.001,-0.29519 -0.0155,-0.58671 -0.0371,-0.87305 0,-0.003 0,-0.004 0,-0.008 -0.0859,-1.10891 -0.9016,-2.12274 -1.96484,-2.44922 -0.81896,-0.25134 -1.67754,0.0174 -2.37696,0.50781 0.48798,-2.53961 0.40332,-4.94985 -0.78906,-6.92382 -0.79964,-1.32381 -1.89443,-2.35911 -3.17578,-3.24219 z m 3.41211,10.51562 c 0,0 0.002,0 0.002,0 5.9e-4,0.003 0.0185,0.017 0.0117,0.0137 -0.0234,0.0265 -0.0654,0.0299 -0.0879,0.0586 0.0381,-0.0479 0.0608,-0.0648 0.0742,-0.0723 z"
         transform="matrix(0.26458334,0,0,0.26458334,0,280.06666)" />
      <path
         style="color:#000000;fill:#dc1c4b;stroke-width:0.820525;stroke-linecap:round;stroke-linejoin:round;-inkscape-stroke:none"
         d="m -53.509766,382.12891 a 0.26460847,0.26460847 0 0 0 -0.357421,0.3457 c 0,0 0.0379,0.0898 0.03516,0.21094 -0.0027,0.12113 -0.02567,0.24093 -0.216797,0.36523 -0.296472,0.19283 -0.66475,0.5235 -0.972656,0.96484 -0.308219,0.4418 -0.554688,0.99877 -0.554688,1.62305 3.1e-5,1.24455 1.108041,2.23047 2.4375,2.23047 1.329436,0 2.437469,-0.98592 2.4375,-2.23047 0,-0.0697 -0.0027,-0.13932 -0.0078,-0.20703 a 0.26460847,0.26460847 0 0 0 -0.470703,-0.14453 c -0.07264,0.0914 -0.199842,0.16016 -0.351563,0.16016 -0.131024,0 -0.247716,-0.049 -0.304687,-0.10547 -0.05697,-0.0565 -0.0856,-0.10579 -0.04492,-0.24805 0.207058,-0.72419 0.170238,-1.32171 -0.119141,-1.80078 -0.289379,-0.47907 -0.789472,-0.8139 -1.439453,-1.13086 a 0.26460847,0.26460847 0 0 0 -0.002,0 z"
         id="path410870" />
      <path
         id="path428979"
         style="color:#000000;fill:#aabfd2;fill-opacity:1;stroke-width:3.1012;stroke-linecap:round;stroke-linejoin:round;-inkscape-stroke:none"
         d="m -193.63477,359.2168 a 1.0000006,1.0000006 0 0 0 -1.0039,1.0039 1.0000006,1.0000006 0 0 0 1.0039,0.9961 c 6.75955,0 12.89232,0.40712 17.46485,1.05273 -0.0312,-0.62436 -0.0968,-1.27459 -0.19727,-1.95312 -0.005,-0.033 -0.007,-0.0651 -0.0117,-0.0977 -4.64426,-0.62381 -10.65712,-1.00195 -17.25586,-1.00195 z m -8.28125,0.20508 c -2.94527,0.1504 -5.64979,0.37991 -8.04101,0.67187 0.008,0.0103 0.0159,0.021 0.0234,0.0312 0.48838,0.66766 0.71989,1.25811 0.69531,1.90039 2.21554,-0.25656 4.71222,-0.46344 7.41797,-0.60156 a 1.0000006,1.0000006 0 0 0 0.95117,-1.04883 1.0000006,1.0000006 0 0 0 -1.04688,-0.95117 z"
         transform="matrix(0.26458334,0,0,0.26458334,0,280.06666)" />
      <path
         id="path432454"
         style="color:#000000;fill:#aabfd2;fill-opacity:1;stroke-width:3.1012;stroke-linecap:round;stroke-linejoin:round;-inkscape-stroke:none"
         d="m -203.14258,370.00781 c -4.48559,0.22956 -9.8223,0.69381 -14.47461,1.28907 -0.50126,0.7108 -0.89407,1.43928 -1.1875,2.17773 4.89009,-0.67798 10.85963,-1.21588 15.76563,-1.4668 a 1.0000006,1.0000006 0 0 0 0.95312,-1.04687 1.0000006,1.0000006 0 0 0 -1.05664,-0.95313 z m 1.125,8.38672 c -2.38364,0.002 -4.84427,0.11168 -7.27344,0.36133 a 1.0000006,1.0000006 0 0 0 -0.89257,1.09961 1.0000006,1.0000006 0 0 0 1.09961,0.89453 c 4.14922,-0.42626 8.42801,-0.42659 12.20703,-0.17773 0.49126,-0.65167 1.04284,-1.28132 1.6582,-1.88282 -2.11926,-0.18414 -4.41349,-0.29657 -6.79883,-0.29492 z"
         transform="matrix(0.26458334,0,0,0.26458334,0,280.06666)" />
      <path
         id="path436871"
         style="color:#000000;fill:#b11e48;fill-opacity:1;stroke-width:0.820525;stroke-linecap:round;stroke-linejoin:round;-inkscape-stroke:none"
         d="m -46.783285,378.73637 c -0.361702,-1e-5 -0.671822,0.24012 -0.77773,0.56844 0.07845,-0.0254 0.162121,-0.0393 0.248563,-0.0393 0.447958,10e-6 0.816557,0.36852 0.816488,0.81649 -2.6e-5,0.0863 -0.01397,0.16971 -0.03927,0.24805 0.328001,-0.10611 0.568327,-0.4158 0.568441,-0.77721 6.9e-5,-0.44798 -0.36853,-0.81648 -0.816488,-0.81649 z" />
      <path
         id="path439564"
         style="color:#000000;fill:#b11e48;fill-opacity:1;stroke-width:0.820525;stroke-linecap:round;stroke-linejoin:round;-inkscape-stroke:none"
         d="m -59.175867,381.2071 c -0.361702,-1e-5 -0.671822,0.24012 -0.77773,0.56844 0.07845,-0.0254 0.162121,-0.0393 0.248563,-0.0393 0.447958,10e-6 0.816557,0.36852 0.816488,0.81649 -2.6e-5,0.0863 -0.01397,0.16971 -0.03927,0.24805 0.328001,-0.10611 0.568327,-0.4158 0.568441,-0.77721 6.9e-5,-0.44798 -0.36853,-0.81648 -0.816488,-0.81649 z" />
      <path
         id="path439566"
         style="color:#000000;fill:#b11e48;fill-opacity:1;stroke-width:0.820525;stroke-linecap:round;stroke-linejoin:round;-inkscape-stroke:none"
         d="m -60.189539,374.51374 c -0.361702,-10e-6 -0.671822,0.24012 -0.77773,0.56844 0.07845,-0.0254 0.162121,-0.0393 0.248563,-0.0393 0.447958,10e-6 0.816557,0.36852 0.816488,0.81649 -2.6e-5,0.0863 -0.01397,0.16971 -0.03927,0.24805 0.328001,-0.10611 0.568327,-0.4158 0.568441,-0.77721 6.9e-5,-0.44798 -0.36853,-0.81648 -0.816488,-0.81649 z" />
    </g>
  </g>
</svg>
